<svg width="2000" height="425" viewBox="0 0 2160 425" xmlns="http://www.w3.org/2000/svg">
    <g id="svgGroup" transform="translate(500, 40)" stroke-linecap="round" fill-rule="evenodd" font-size="9pt" stroke="#3F414B" stroke-width="0.25mm" fill="#3F414B" style="stroke:#3F414B;stroke-width:0.25mm;fill:#3F414B"><path d="M 792 310.4 L 792 108.4 A 278.78 278.78 0 0 1 800.82 106.361 Q 811.083 104.149 825.065 101.759 A 902.173 902.173 0 0 1 826 101.6 A 240.573 240.573 0 0 1 847.281 99.016 Q 858.33 98.143 870.712 98.02 A 412.31 412.31 0 0 1 874.8 98 A 145.036 145.036 0 0 1 892.198 98.982 Q 900.874 100.032 908.203 102.207 A 72.082 72.082 0 0 1 916 105 A 70.143 70.143 0 0 1 932.163 114.489 A 59.521 59.521 0 0 1 942.2 124.6 A 71.854 71.854 0 0 1 953.291 145.296 A 88.908 88.908 0 0 1 956 154.8 Q 960 172.4 960 193.6 L 960 310.4 L 922.8 310.4 L 922.8 201.6 Q 922.8 186.9 921.276 175.483 A 120.599 120.599 0 0 0 920.2 168.8 Q 917.6 155.2 911.6 146.8 Q 905.6 138.4 895.6 134.6 A 53.122 53.122 0 0 0 886.12 132.036 Q 879.241 130.8 870.8 130.8 A 196.446 196.446 0 0 0 859.994 131.106 A 217.025 217.025 0 0 0 858.4 131.2 A 312.572 312.572 0 0 0 849.161 131.91 A 270.729 270.729 0 0 0 846.2 132.2 Q 840.587 132.781 836.098 133.549 A 109.511 109.511 0 0 0 835.8 133.6 Q 831.564 134.337 829.533 134.734 A 82.024 82.024 0 0 0 829.2 134.8 L 829.2 310.4 L 792 310.4 Z M 1364.8 111.6 L 1364.8 6.4 L 1402 0 L 1402 304.4 A 234.458 234.458 0 0 1 1392.349 306.875 Q 1382.325 309.238 1369.2 311.6 A 214.755 214.755 0 0 1 1349.132 314.184 Q 1338.717 315.057 1327.051 315.18 A 365.94 365.94 0 0 1 1323.2 315.2 A 130.416 130.416 0 0 1 1299.055 313.055 A 103.83 103.83 0 0 1 1280 307.6 Q 1260.8 300 1247.2 286 A 92.461 92.461 0 0 1 1229.462 259.75 A 110.666 110.666 0 0 1 1226.2 251.8 Q 1218.8 231.6 1218.8 206.4 A 161.899 161.899 0 0 1 1220.872 179.987 A 132.048 132.048 0 0 1 1225 162.4 A 106.053 106.053 0 0 1 1234.407 140.624 A 90.243 90.243 0 0 1 1243.2 128 Q 1255.2 113.6 1272.6 105.6 A 86.593 86.593 0 0 1 1296.946 98.633 A 111.784 111.784 0 0 1 1312.4 97.6 A 114.847 114.847 0 0 1 1328.352 98.655 A 83.482 83.482 0 0 1 1344.2 102.4 A 179.463 179.463 0 0 1 1351.777 105.215 Q 1360.019 108.506 1364.8 111.6 Z M 374.8 216.4 L 232.4 216.4 Q 234.132 239.786 243.159 255.045 A 55.435 55.435 0 0 0 251.2 265.6 Q 267.6 282.4 302.4 282.4 Q 317.406 282.4 328.778 280.407 A 90.389 90.389 0 0 0 335.4 279 Q 346.445 276.198 353.005 273.531 A 52.769 52.769 0 0 0 355.6 272.4 L 360.8 303.6 Q 354 307.2 337 311.2 Q 320 315.2 298.4 315.2 Q 273.2 315.2 254.351 308.161 A 89.999 89.999 0 0 1 251.4 307 A 94.175 94.175 0 0 1 230.386 295.1 A 80.792 80.792 0 0 1 218.8 284.4 A 90.934 90.934 0 0 1 201.235 254.467 A 106.182 106.182 0 0 1 199.8 250.2 A 135.701 135.701 0 0 1 194.268 221.878 A 166.346 166.346 0 0 1 193.6 206.8 A 161.64 161.64 0 0 1 195.131 183.99 Q 196.915 171.481 200.778 160.792 A 99.055 99.055 0 0 1 201.6 158.6 A 113.551 113.551 0 0 1 211.233 139.217 A 89.808 89.808 0 0 1 222.8 124.4 Q 236 110.8 253.2 104 Q 270.4 97.2 288.4 97.2 A 107.463 107.463 0 0 1 314.683 100.226 A 71.857 71.857 0 0 1 352.8 123.4 A 81.519 81.519 0 0 1 367.51 149.795 Q 371.715 161.825 373.621 176.67 A 208.824 208.824 0 0 1 375.2 203.2 L 375.2 209.4 A 63.077 63.077 0 0 1 375.073 213.485 A 49.28 49.28 0 0 1 374.8 216.4 Z M 38.8 276.8 L 166.8 276.8 L 166.8 310.4 L 0 310.4 L 0 33.2 L 38.8 33.2 L 38.8 276.8 Z M 576 176.8 L 576 306.8 Q 572.325 307.413 566.423 308.377 A 7043.981 7043.981 0 0 1 562.6 309 A 328.522 328.522 0 0 1 553.601 310.33 Q 548.684 310.991 543.2 311.6 Q 532.4 312.8 519.8 313.8 Q 507.2 314.8 494.8 314.8 A 150.903 150.903 0 0 1 475.886 313.661 A 121.458 121.458 0 0 1 462.4 311.2 A 79.626 79.626 0 0 1 447.065 305.844 A 65.166 65.166 0 0 1 436.8 299.8 Q 426 292 420 279.2 A 60.538 60.538 0 0 1 415.408 264.617 Q 414.176 258.056 414.022 250.561 A 105.208 105.208 0 0 1 414 248.4 A 71.04 71.04 0 0 1 415.34 234.269 A 52.444 52.444 0 0 1 421 218.8 Q 428 206.4 440 198.8 A 81.53 81.53 0 0 1 457.244 190.626 A 102.413 102.413 0 0 1 468 187.6 A 150.597 150.597 0 0 1 497.225 184.056 A 169.22 169.22 0 0 1 501.6 184 A 114.625 114.625 0 0 1 511.335 184.427 A 128.208 128.208 0 0 1 513.2 184.6 Q 519.2 185.2 524.6 186.2 Q 530 187.2 534 188 Q 537.684 188.737 539.332 189.134 A 33.195 33.195 0 0 1 539.6 189.2 L 539.6 178.8 Q 539.6 169.6 537.6 160.6 Q 535.6 151.6 530.4 144.6 A 34.427 34.427 0 0 0 520.962 135.984 A 43.45 43.45 0 0 0 516.2 133.4 A 39.866 39.866 0 0 0 507.996 130.681 Q 501.35 129.2 492.8 129.2 A 220.282 220.282 0 0 0 477.596 129.697 Q 470.676 130.176 464.576 131.12 A 122.992 122.992 0 0 0 460.6 131.8 A 213.374 213.374 0 0 0 453.391 133.278 Q 446.881 134.74 442.49 136.262 A 46.934 46.934 0 0 0 440 137.2 L 435.6 106.4 A 45.925 45.925 0 0 1 440.102 104.714 Q 444.969 103.143 452.227 101.622 A 252.528 252.528 0 0 1 459.6 100.2 Q 476.4 97.2 496 97.2 Q 514.134 97.2 527.681 101.001 A 74.349 74.349 0 0 1 533.8 103 Q 549.2 108.8 558.6 119.4 A 61.568 61.568 0 0 1 571.411 142.567 A 71.95 71.95 0 0 1 572 144.6 Q 576 159.2 576 176.8 Z M 1168.8 176.8 L 1168.8 306.8 Q 1165.125 307.413 1159.223 308.377 A 7043.981 7043.981 0 0 1 1155.4 309 A 328.522 328.522 0 0 1 1146.401 310.33 Q 1141.484 310.991 1136 311.6 Q 1125.2 312.8 1112.6 313.8 Q 1100 314.8 1087.6 314.8 A 150.903 150.903 0 0 1 1068.686 313.661 A 121.458 121.458 0 0 1 1055.2 311.2 A 79.626 79.626 0 0 1 1039.865 305.844 A 65.166 65.166 0 0 1 1029.6 299.8 Q 1018.8 292 1012.8 279.2 A 60.538 60.538 0 0 1 1008.208 264.617 Q 1006.976 258.056 1006.822 250.561 A 105.208 105.208 0 0 1 1006.8 248.4 A 71.04 71.04 0 0 1 1008.14 234.269 A 52.444 52.444 0 0 1 1013.8 218.8 Q 1020.8 206.4 1032.8 198.8 A 81.53 81.53 0 0 1 1050.044 190.626 A 102.413 102.413 0 0 1 1060.8 187.6 A 150.597 150.597 0 0 1 1090.025 184.056 A 169.22 169.22 0 0 1 1094.4 184 A 114.625 114.625 0 0 1 1104.135 184.427 A 128.208 128.208 0 0 1 1106 184.6 Q 1112 185.2 1117.4 186.2 Q 1122.8 187.2 1126.8 188 Q 1130.484 188.737 1132.132 189.134 A 33.195 33.195 0 0 1 1132.4 189.2 L 1132.4 178.8 Q 1132.4 169.6 1130.4 160.6 Q 1128.4 151.6 1123.2 144.6 A 34.427 34.427 0 0 0 1113.762 135.984 A 43.45 43.45 0 0 0 1109 133.4 A 39.866 39.866 0 0 0 1100.796 130.681 Q 1094.15 129.2 1085.6 129.2 A 220.282 220.282 0 0 0 1070.396 129.697 Q 1063.476 130.176 1057.376 131.12 A 122.992 122.992 0 0 0 1053.4 131.8 A 213.374 213.374 0 0 0 1046.191 133.278 Q 1039.681 134.74 1035.29 136.262 A 46.934 46.934 0 0 0 1032.8 137.2 L 1028.4 106.4 A 45.925 45.925 0 0 1 1032.902 104.714 Q 1037.769 103.143 1045.027 101.622 A 252.528 252.528 0 0 1 1052.4 100.2 Q 1069.2 97.2 1088.8 97.2 Q 1106.934 97.2 1120.481 101.001 A 74.349 74.349 0 0 1 1126.6 103 Q 1142 108.8 1151.4 119.4 A 61.568 61.568 0 0 1 1164.211 142.567 A 71.95 71.95 0 0 1 1164.8 144.6 Q 1168.8 159.2 1168.8 176.8 Z M 1647.568 231.395 A 147.459 147.459 0 0 0 1649.6 206.4 Q 1649.6 182 1642.4 161.8 A 117.853 117.853 0 0 0 1638.972 153.24 A 98.62 98.62 0 0 0 1622.2 127.2 Q 1609.2 112.8 1591.2 105 A 91.581 91.581 0 0 0 1580.674 101.186 A 100.907 100.907 0 0 0 1552 97.2 Q 1530.8 97.2 1512.8 105 Q 1494.8 112.8 1481.8 127.2 Q 1468.8 141.6 1461.6 161.8 A 118.726 118.726 0 0 0 1456.806 179.591 A 143.864 143.864 0 0 0 1454.4 206.4 Q 1454.4 231.2 1461.6 251.2 A 117.807 117.807 0 0 0 1464.504 258.503 A 99.676 99.676 0 0 0 1481.8 285.6 Q 1494.8 300 1512.8 307.8 A 91.581 91.581 0 0 0 1523.326 311.614 A 100.907 100.907 0 0 0 1552 315.6 Q 1573.2 315.6 1591.2 307.8 Q 1609.2 300 1622.2 285.6 A 94.922 94.922 0 0 0 1630.452 275.038 A 107.658 107.658 0 0 0 1642.4 251.2 A 116.758 116.758 0 0 0 1647.568 231.395 Z M 756 104 L 749.6 136.4 Q 746.283 135.194 739.669 133.646 A 276.384 276.384 0 0 0 735 132.6 A 83.771 83.771 0 0 0 726.92 131.303 Q 719.05 130.4 708.8 130.4 Q 698.4 130.4 688.2 132.6 Q 678 134.8 674.8 135.6 L 674.8 310.4 L 637.6 310.4 L 637.6 111.2 Q 650.8 106.4 670.4 102.2 A 183.422 183.422 0 0 1 692.58 98.923 A 246.719 246.719 0 0 1 714.4 98 Q 718.525 98 723.684 98.443 A 159.719 159.719 0 0 1 725.4 98.6 Q 731.6 99.2 737.6 100.2 Q 743.6 101.2 748.6 102.2 Q 753.6 103.2 756 104 Z M 1364.8 278 L 1364.8 146.4 A 48.502 48.502 0 0 0 1359.416 142.597 Q 1353.6 139.013 1345.2 135.6 A 71.469 71.469 0 0 0 1323.276 130.615 A 84.836 84.836 0 0 0 1317.2 130.4 Q 1302.067 130.4 1291.049 135.588 A 45.54 45.54 0 0 0 1289.8 136.2 Q 1278.4 142 1271.2 152.2 A 62.844 62.844 0 0 0 1263.473 167.224 A 78.882 78.882 0 0 0 1260.8 176.4 Q 1257.6 190.4 1257.6 206.4 A 118.042 118.042 0 0 0 1259.537 228.496 Q 1261.924 241.008 1267.252 250.808 A 60.177 60.177 0 0 0 1275.6 262.6 Q 1293.6 282.4 1323.6 282.4 A 273.675 273.675 0 0 0 1334.088 282.211 Q 1342.545 281.886 1349 281 Q 1357.407 279.846 1362.689 278.556 A 56.414 56.414 0 0 0 1364.8 278 Z M 1610.8 206.4 Q 1610.8 171.2 1595 150.6 Q 1579.2 130 1552 130 A 57.753 57.753 0 0 0 1531.781 133.4 A 50.587 50.587 0 0 0 1509 150.6 Q 1493.2 171.2 1493.2 206.4 Q 1493.2 241.6 1509 262.2 Q 1524.8 282.8 1552 282.8 A 57.753 57.753 0 0 0 1572.219 279.4 A 50.587 50.587 0 0 0 1595 262.2 Q 1610.8 241.6 1610.8 206.4 Z M 539.6 280.8 L 539.6 218.8 A 21.069 21.069 0 0 0 536.954 217.722 Q 534.017 216.728 529.605 215.91 A 105.556 105.556 0 0 0 526.6 215.4 Q 519.709 214.328 510.591 214.077 A 210.466 210.466 0 0 0 504.8 214 A 131.594 131.594 0 0 0 493.909 214.469 A 157.745 157.745 0 0 0 487 215.2 A 57.022 57.022 0 0 0 474.443 218.22 A 50.525 50.525 0 0 0 469.8 220.2 Q 462 224 456.8 230.6 Q 451.92 236.794 451.62 246.687 A 43.286 43.286 0 0 0 451.6 248 Q 451.6 268 464.4 275.8 A 47.585 47.585 0 0 0 476.707 280.958 Q 486.395 283.6 499.2 283.6 A 498.168 498.168 0 0 0 510.176 283.485 Q 515.191 283.374 519.672 283.157 A 286.156 286.156 0 0 0 522.6 283 A 144.499 144.499 0 0 0 529.702 282.417 Q 533.04 282.054 535.903 281.552 A 65.713 65.713 0 0 0 539.6 280.8 Z M 1132.4 280.8 L 1132.4 218.8 A 21.069 21.069 0 0 0 1129.754 217.722 Q 1126.817 216.728 1122.405 215.91 A 105.556 105.556 0 0 0 1119.4 215.4 Q 1112.509 214.328 1103.391 214.077 A 210.466 210.466 0 0 0 1097.6 214 A 131.594 131.594 0 0 0 1086.709 214.469 A 157.745 157.745 0 0 0 1079.8 215.2 A 57.022 57.022 0 0 0 1067.243 218.22 A 50.525 50.525 0 0 0 1062.6 220.2 Q 1054.8 224 1049.6 230.6 Q 1044.72 236.794 1044.42 246.687 A 43.286 43.286 0 0 0 1044.4 248 Q 1044.4 268 1057.2 275.8 A 47.585 47.585 0 0 0 1069.507 280.958 Q 1079.195 283.6 1092 283.6 A 498.168 498.168 0 0 0 1102.976 283.485 Q 1107.991 283.374 1112.472 283.157 A 286.156 286.156 0 0 0 1115.4 283 A 144.499 144.499 0 0 0 1122.502 282.417 Q 1125.84 282.054 1128.703 281.552 A 65.713 65.713 0 0 0 1132.4 280.8 Z M 233.2 186.4 L 336.4 186.4 A 94.288 94.288 0 0 0 336.412 184.904 Q 336.412 175.172 334.37 166.812 A 55.324 55.324 0 0 0 323.8 145 A 42.334 42.334 0 0 0 292.87 128.994 A 59.917 59.917 0 0 0 288 128.8 Q 275.2 128.8 265.4 133.8 Q 255.6 138.8 248.8 146.8 A 59.789 59.789 0 0 0 238.26 165.038 A 67.231 67.231 0 0 0 238.2 165.2 Q 234.4 175.6 233.2 186.4 Z"/></g>
    <g id="logo">
        <title>Layer 1</title>
        <rect stroke="#ab57a8" id="svg_1" height="330" width="95" y="0" x="0" fill="#ab57a8"/>
        <rect stroke="#ab57a8" id="svg_3" height="95" width="165" y="330.5" x="95.5" fill="#ab57a8"/>
        <path stroke="#993596" id="svg_4" d="m95,330l0,95-95,-95,0z" fill="#993596"/>
    </g>

</svg>
