<svg width="415" height="80" viewBox="0 0 415 80" xmlns="http://www.w3.org/2000/svg"><g id="svgGroup" stroke-linecap="round" fill-rule="evenodd" font-size="9pt" stroke="#1E93F2" stroke-width="0.25mm" fill="#1E93F2" style="stroke:#1E93F2;stroke-width:0.25mm;fill:#1E93F2"><path d="M 198 77.6 L 198 27.1 Q 201.129 26.318 206.266 25.44 A 225.751 225.751 0 0 1 206.5 25.4 A 60.143 60.143 0 0 1 211.82 24.754 Q 214.582 24.536 217.678 24.505 A 103.082 103.082 0 0 1 218.7 24.5 A 36.259 36.259 0 0 1 223.049 24.745 Q 226.435 25.155 229 26.25 A 17.536 17.536 0 0 1 233.041 28.622 A 14.88 14.88 0 0 1 235.55 31.15 A 17.963 17.963 0 0 1 238.323 36.324 A 22.227 22.227 0 0 1 239 38.7 A 39.412 39.412 0 0 1 239.809 43.935 A 50.295 50.295 0 0 1 240 48.4 L 240 77.6 L 230.7 77.6 L 230.7 50.4 A 59.914 59.914 0 0 0 230.609 46.997 Q 230.513 45.327 230.319 43.871 A 30.15 30.15 0 0 0 230.05 42.2 Q 229.4 38.8 227.9 36.7 Q 226.4 34.6 223.9 33.65 A 13.28 13.28 0 0 0 221.53 33.009 Q 220.348 32.797 218.981 32.73 A 26.414 26.414 0 0 0 217.7 32.7 A 49.112 49.112 0 0 0 214.998 32.777 A 54.26 54.26 0 0 0 214.6 32.8 A 78.143 78.143 0 0 0 212.29 32.978 A 67.682 67.682 0 0 0 211.55 33.05 A 45.376 45.376 0 0 0 210.216 33.207 Q 209.585 33.291 209.024 33.387 A 27.373 27.373 0 0 0 208.95 33.4 A 170.048 170.048 0 0 0 208.416 33.494 Q 207.675 33.625 207.3 33.7 L 207.3 77.6 L 198 77.6 Z M 341.2 27.9 L 341.2 1.6 L 350.5 0 L 350.5 76.1 Q 348.35 76.705 345.387 77.309 A 135.562 135.562 0 0 1 342.3 77.9 A 53.689 53.689 0 0 1 337.283 78.546 Q 334.679 78.764 331.763 78.795 A 91.489 91.489 0 0 1 330.8 78.8 A 32.604 32.604 0 0 1 324.764 78.264 A 25.957 25.957 0 0 1 320 76.9 A 23.366 23.366 0 0 1 312.7 72.376 A 22.35 22.35 0 0 1 311.8 71.5 Q 308.4 68 306.55 62.95 A 29.993 29.993 0 0 1 304.966 56.195 A 38.463 38.463 0 0 1 304.7 51.6 Q 304.7 45.6 306.25 40.6 A 26.513 26.513 0 0 1 308.602 35.156 A 22.561 22.561 0 0 1 310.8 32 Q 313.8 28.4 318.15 26.4 Q 322.5 24.4 328.1 24.4 A 28.712 28.712 0 0 1 332.088 24.664 A 20.87 20.87 0 0 1 336.05 25.6 A 44.866 44.866 0 0 1 337.944 26.304 Q 340.005 27.127 341.2 27.9 Z M 93.7 54.1 L 58.1 54.1 A 28.087 28.087 0 0 0 58.871 58.996 Q 60.045 63.578 62.8 66.4 Q 66.9 70.6 75.6 70.6 Q 79.352 70.6 82.195 70.102 A 22.597 22.597 0 0 0 83.85 69.75 Q 86.611 69.049 88.251 68.383 A 13.193 13.193 0 0 0 88.9 68.1 L 90.2 75.9 A 10.196 10.196 0 0 1 89.191 76.356 Q 88.013 76.822 86.187 77.314 A 62.819 62.819 0 0 1 84.25 77.8 Q 80.066 78.784 74.768 78.8 A 57.968 57.968 0 0 1 74.6 78.8 A 37.942 37.942 0 0 1 69.098 78.422 Q 65.673 77.919 62.85 76.75 Q 57.9 74.7 54.7 71.1 A 22.733 22.733 0 0 1 50.309 63.617 A 26.545 26.545 0 0 1 49.95 62.55 A 33.925 33.925 0 0 1 48.567 55.47 A 41.586 41.586 0 0 1 48.4 51.7 A 40.41 40.41 0 0 1 48.783 45.997 Q 49.229 42.87 50.195 40.198 A 24.764 24.764 0 0 1 50.4 39.65 A 28.388 28.388 0 0 1 52.808 34.804 A 22.452 22.452 0 0 1 55.7 31.1 Q 59 27.7 63.3 26 Q 67.6 24.3 72.1 24.3 A 26.866 26.866 0 0 1 78.671 25.056 A 17.964 17.964 0 0 1 88.2 30.85 A 20.38 20.38 0 0 1 91.877 37.449 Q 92.929 40.456 93.405 44.167 A 52.206 52.206 0 0 1 93.8 50.8 L 93.8 52.35 Q 93.8 53.3 93.7 54.1 Z M 9.7 69.2 L 41.7 69.2 L 41.7 77.6 L 0 77.6 L 0 8.3 L 9.7 8.3 L 9.7 69.2 Z M 144 44.2 L 144 76.7 Q 143.081 76.853 141.606 77.094 A 1762.83 1762.83 0 0 1 140.65 77.25 A 82.13 82.13 0 0 1 138.4 77.582 Q 137.248 77.737 135.971 77.881 A 132.357 132.357 0 0 1 135.8 77.9 Q 133.1 78.2 129.95 78.45 Q 126.8 78.7 123.7 78.7 A 37.726 37.726 0 0 1 118.971 78.415 A 30.364 30.364 0 0 1 115.6 77.8 Q 111.9 76.9 109.2 74.95 A 12.989 12.989 0 0 1 105.119 70.048 A 15.291 15.291 0 0 1 105 69.8 A 15.134 15.134 0 0 1 103.852 66.154 Q 103.544 64.514 103.505 62.64 A 26.302 26.302 0 0 1 103.5 62.1 A 17.76 17.76 0 0 1 103.835 58.567 A 13.111 13.111 0 0 1 105.25 54.7 Q 107 51.6 110 49.7 A 20.382 20.382 0 0 1 114.311 47.656 A 25.603 25.603 0 0 1 117 46.9 A 37.649 37.649 0 0 1 124.306 46.014 A 42.305 42.305 0 0 1 125.4 46 A 28.656 28.656 0 0 1 127.834 46.107 A 32.053 32.053 0 0 1 128.3 46.15 A 35.775 35.775 0 0 1 130.466 46.431 A 31.084 31.084 0 0 1 131.15 46.55 Q 132.078 46.722 132.841 46.87 A 124.136 124.136 0 0 1 133.5 47 A 83.95 83.95 0 0 1 133.963 47.094 Q 134.533 47.211 134.833 47.284 A 8.295 8.295 0 0 1 134.9 47.3 L 134.9 44.7 Q 134.9 42.4 134.4 40.15 Q 133.9 37.9 132.6 36.15 A 8.607 8.607 0 0 0 130.24 33.996 A 10.863 10.863 0 0 0 129.05 33.35 Q 127.322 32.544 124.797 32.356 A 21.641 21.641 0 0 0 123.2 32.3 Q 119.247 32.3 116.144 32.78 A 30.748 30.748 0 0 0 115.15 32.95 Q 111.7 33.6 110 34.3 L 108.9 26.6 A 11.481 11.481 0 0 1 110.026 26.179 Q 111.242 25.786 113.057 25.406 A 63.132 63.132 0 0 1 114.9 25.05 A 47.935 47.935 0 0 1 120.423 24.405 A 59.098 59.098 0 0 1 124 24.3 A 35.959 35.959 0 0 1 128.108 24.521 Q 130.168 24.759 131.92 25.25 A 18.587 18.587 0 0 1 133.45 25.75 Q 137.3 27.2 139.65 29.85 Q 142 32.5 143 36.15 A 27.895 27.895 0 0 1 143.853 40.941 A 35.169 35.169 0 0 1 144 44.2 Z M 292.2 44.2 L 292.2 76.7 Q 291.281 76.853 289.806 77.094 A 1762.83 1762.83 0 0 1 288.85 77.25 A 82.13 82.13 0 0 1 286.6 77.582 Q 285.448 77.737 284.171 77.881 A 132.357 132.357 0 0 1 284 77.9 Q 281.3 78.2 278.15 78.45 Q 275 78.7 271.9 78.7 A 37.726 37.726 0 0 1 267.171 78.415 A 30.364 30.364 0 0 1 263.8 77.8 Q 260.1 76.9 257.4 74.95 A 12.989 12.989 0 0 1 253.319 70.048 A 15.291 15.291 0 0 1 253.2 69.8 A 15.134 15.134 0 0 1 252.052 66.154 Q 251.744 64.514 251.705 62.64 A 26.302 26.302 0 0 1 251.7 62.1 A 17.76 17.76 0 0 1 252.035 58.567 A 13.111 13.111 0 0 1 253.45 54.7 Q 255.2 51.6 258.2 49.7 A 20.382 20.382 0 0 1 262.511 47.656 A 25.603 25.603 0 0 1 265.2 46.9 A 37.649 37.649 0 0 1 272.506 46.014 A 42.305 42.305 0 0 1 273.6 46 A 28.656 28.656 0 0 1 276.034 46.107 A 32.053 32.053 0 0 1 276.5 46.15 A 35.775 35.775 0 0 1 278.666 46.431 A 31.084 31.084 0 0 1 279.35 46.55 Q 280.278 46.722 281.041 46.87 A 124.136 124.136 0 0 1 281.7 47 A 83.95 83.95 0 0 1 282.163 47.094 Q 282.733 47.211 283.033 47.284 A 8.295 8.295 0 0 1 283.1 47.3 L 283.1 44.7 Q 283.1 42.4 282.6 40.15 Q 282.1 37.9 280.8 36.15 A 8.607 8.607 0 0 0 278.44 33.996 A 10.863 10.863 0 0 0 277.25 33.35 Q 275.522 32.544 272.997 32.356 A 21.641 21.641 0 0 0 271.4 32.3 Q 267.447 32.3 264.344 32.78 A 30.748 30.748 0 0 0 263.35 32.95 Q 259.9 33.6 258.2 34.3 L 257.1 26.6 A 11.481 11.481 0 0 1 258.226 26.179 Q 259.442 25.786 261.257 25.406 A 63.132 63.132 0 0 1 263.1 25.05 A 47.935 47.935 0 0 1 268.623 24.405 A 59.098 59.098 0 0 1 272.2 24.3 A 35.959 35.959 0 0 1 276.308 24.521 Q 278.368 24.759 280.12 25.25 A 18.587 18.587 0 0 1 281.65 25.75 Q 285.5 27.2 287.85 29.85 Q 290.2 32.5 291.2 36.15 A 27.895 27.895 0 0 1 292.053 40.941 A 35.169 35.169 0 0 1 292.2 44.2 Z M 411.892 57.849 A 36.865 36.865 0 0 0 412.4 51.6 Q 412.4 45.5 410.6 40.45 Q 408.8 35.4 405.55 31.8 Q 402.3 28.2 397.8 26.25 A 22.895 22.895 0 0 0 395.169 25.296 A 25.227 25.227 0 0 0 388 24.3 A 28.028 28.028 0 0 0 386.687 24.33 A 23.986 23.986 0 0 0 378.2 26.25 Q 373.7 28.2 370.45 31.8 A 23.504 23.504 0 0 0 368.216 34.704 A 27.1 27.1 0 0 0 365.4 40.45 A 29.682 29.682 0 0 0 364.202 44.898 A 35.966 35.966 0 0 0 363.6 51.6 Q 363.6 57.8 365.4 62.8 Q 367.2 67.8 370.45 71.4 Q 373.7 75 378.2 76.95 A 22.895 22.895 0 0 0 380.831 77.904 A 25.227 25.227 0 0 0 388 78.9 A 28.028 28.028 0 0 0 389.313 78.87 A 23.986 23.986 0 0 0 397.8 76.95 Q 402.3 75 405.55 71.4 A 23.73 23.73 0 0 0 407.613 68.76 A 26.915 26.915 0 0 0 410.6 62.8 A 29.189 29.189 0 0 0 411.892 57.849 Z M 189 26 L 187.4 34.1 Q 186.3 33.7 183.75 33.15 Q 182.017 32.776 179.614 32.656 A 48.627 48.627 0 0 0 177.2 32.6 Q 174.6 32.6 172.05 33.15 A 401.006 401.006 0 0 0 171.018 33.374 Q 169.722 33.657 169.052 33.815 A 27.353 27.353 0 0 0 168.7 33.9 L 168.7 77.6 L 159.4 77.6 L 159.4 27.8 A 44.891 44.891 0 0 1 162.1 26.921 Q 163.604 26.48 165.347 26.061 A 93.181 93.181 0 0 1 167.6 25.55 A 45.855 45.855 0 0 1 173.145 24.731 A 61.68 61.68 0 0 1 178.6 24.5 A 23.12 23.12 0 0 1 179.717 24.529 Q 180.478 24.566 181.35 24.65 Q 182.9 24.8 184.4 25.05 Q 185.9 25.3 187.15 25.55 Q 188.4 25.8 189 26 Z M 341.2 69.5 L 341.2 36.6 A 12.126 12.126 0 0 0 339.854 35.649 Q 338.4 34.753 336.3 33.9 A 17.867 17.867 0 0 0 330.819 32.654 A 21.209 21.209 0 0 0 329.3 32.6 Q 325.517 32.6 322.762 33.897 A 11.385 11.385 0 0 0 322.45 34.05 Q 319.6 35.5 317.8 38.05 A 15.711 15.711 0 0 0 315.868 41.806 A 19.721 19.721 0 0 0 315.2 44.1 A 32.095 32.095 0 0 0 314.463 49.39 A 37.979 37.979 0 0 0 314.4 51.6 A 29.511 29.511 0 0 0 314.884 57.124 Q 315.876 62.324 318.9 65.65 A 14.877 14.877 0 0 0 328.629 70.479 A 20.761 20.761 0 0 0 330.9 70.6 A 68.419 68.419 0 0 0 333.522 70.553 Q 334.711 70.507 335.742 70.417 A 30.899 30.899 0 0 0 337.25 70.25 Q 339.8 69.9 341.2 69.5 Z M 400.455 40.406 A 16.46 16.46 0 0 0 398.75 37.65 Q 394.8 32.5 388 32.5 A 14.438 14.438 0 0 0 382.945 33.35 A 12.647 12.647 0 0 0 377.25 37.65 Q 373.3 42.8 373.3 51.6 Q 373.3 58.234 375.545 62.794 A 16.46 16.46 0 0 0 377.25 65.55 Q 381.2 70.7 388 70.7 A 14.438 14.438 0 0 0 393.055 69.85 A 12.647 12.647 0 0 0 398.75 65.55 Q 402.7 60.4 402.7 51.6 Q 402.7 44.966 400.455 40.406 Z M 134.9 70.2 L 134.9 54.7 A 5.267 5.267 0 0 0 134.239 54.431 Q 133.504 54.182 132.401 53.977 A 26.389 26.389 0 0 0 131.65 53.85 A 26.068 26.068 0 0 0 129.829 53.637 Q 128.811 53.551 127.648 53.519 A 52.617 52.617 0 0 0 126.2 53.5 A 32.898 32.898 0 0 0 123.477 53.617 A 39.436 39.436 0 0 0 121.75 53.8 A 14.255 14.255 0 0 0 118.611 54.555 A 12.631 12.631 0 0 0 117.45 55.05 Q 115.5 56 114.2 57.65 A 5.788 5.788 0 0 0 113.149 59.838 Q 112.935 60.681 112.905 61.672 A 10.821 10.821 0 0 0 112.9 62 A 12.137 12.137 0 0 0 113.151 64.563 Q 113.479 66.078 114.234 67.186 A 6.02 6.02 0 0 0 116.1 68.95 Q 118.543 70.439 122.328 70.791 A 26.723 26.723 0 0 0 124.8 70.9 Q 128.1 70.9 130.65 70.75 A 36.125 36.125 0 0 0 132.426 70.604 Q 133.26 70.514 133.976 70.388 A 16.428 16.428 0 0 0 134.9 70.2 Z M 283.1 70.2 L 283.1 54.7 A 5.267 5.267 0 0 0 282.439 54.431 Q 281.704 54.182 280.601 53.977 A 26.389 26.389 0 0 0 279.85 53.85 A 26.068 26.068 0 0 0 278.029 53.637 Q 277.011 53.551 275.848 53.519 A 52.617 52.617 0 0 0 274.4 53.5 A 32.898 32.898 0 0 0 271.677 53.617 A 39.436 39.436 0 0 0 269.95 53.8 A 14.255 14.255 0 0 0 266.811 54.555 A 12.631 12.631 0 0 0 265.65 55.05 Q 263.7 56 262.4 57.65 A 5.788 5.788 0 0 0 261.349 59.838 Q 261.135 60.681 261.105 61.672 A 10.821 10.821 0 0 0 261.1 62 A 12.137 12.137 0 0 0 261.351 64.563 Q 261.679 66.078 262.434 67.186 A 6.02 6.02 0 0 0 264.3 68.95 Q 266.743 70.439 270.528 70.791 A 26.723 26.723 0 0 0 273 70.9 Q 276.3 70.9 278.85 70.75 A 36.125 36.125 0 0 0 280.626 70.604 Q 281.46 70.514 282.176 70.388 A 16.428 16.428 0 0 0 283.1 70.2 Z M 58.3 46.6 L 84.1 46.6 Q 84.2 40.3 80.95 36.25 A 10.583 10.583 0 0 0 73.218 32.248 A 14.979 14.979 0 0 0 72 32.2 Q 68.8 32.2 66.35 33.45 Q 63.9 34.7 62.2 36.7 A 14.947 14.947 0 0 0 59.565 41.259 A 16.844 16.844 0 0 0 59.55 41.3 Q 58.6 43.9 58.3 46.6 Z"/></g></svg>
